<svg width="17" height="18" viewBox="0 0 17 18" fill="none" xmlns="http://www.w3.org/2000/svg">
<g filter="url(#filter0_d_63_2497)">
<rect width="16" height="16" rx="2" fill="#76BABD"/>
<rect x="0.5" y="0.5" width="15" height="15" rx="1.5" stroke="#0B0B0B"/>
</g>
<path d="M6.79329 12.1964C6.66073 12.4284 6.53922 12.561 6.42875 12.5941C6.32933 12.6162 6.1581 12.5499 5.91507 12.3953L4.35748 11.2685C4.1255 11.1028 4.00398 10.9647 3.99293 10.8543C3.98189 10.7438 4.07026 10.5836 4.25806 10.3737L6.0642 8.46815L3.54554 8.0539C3.26937 8.00971 3.09815 7.94343 3.03187 7.85506C2.97663 7.75564 2.9932 7.56784 3.08158 7.29167L3.6781 5.45238C3.75543 5.17621 3.84933 5.01604 3.95979 4.97185C4.07026 4.92766 4.24701 4.96633 4.49004 5.08784L6.843 6.14833L6.46189 3.67938C6.4177 3.40321 6.43427 3.22094 6.5116 3.13256C6.59997 3.04419 6.78224 3 7.05841 3H8.99712C9.27329 3 9.44452 3.04419 9.5108 3.13256C9.58813 3.22094 9.6047 3.40321 9.56051 3.67938L9.22911 6.14833L11.4992 5.08784C11.7422 4.96633 11.9135 4.92766 12.0129 4.97185C12.1234 5.01604 12.2228 5.17621 12.3112 5.45238L12.9243 7.29167C13.0126 7.56784 13.0237 7.75564 12.9574 7.85506C12.9022 7.94343 12.7365 8.00971 12.4603 8.0539L9.92505 8.46815L11.7478 10.3737C11.9356 10.5836 12.0239 10.7438 12.0129 10.8543C12.0018 10.9647 11.8803 11.1028 11.6483 11.2685L10.0908 12.3953C9.84772 12.5499 9.6765 12.6162 9.57708 12.5941C9.47766 12.561 9.36167 12.4284 9.22911 12.1964L8.00291 9.86005L6.79329 12.1964Z" fill="#FEFEFE"/>
<defs>
<filter id="filter0_d_63_2497" x="0" y="0" width="17" height="18" filterUnits="userSpaceOnUse" color-interpolation-filters="sRGB">
<feFlood flood-opacity="0" result="BackgroundImageFix"/>
<feColorMatrix in="SourceAlpha" type="matrix" values="0 0 0 0 0 0 0 0 0 0 0 0 0 0 0 0 0 0 127 0" result="hardAlpha"/>
<feOffset dx="1" dy="2"/>
<feComposite in2="hardAlpha" operator="out"/>
<feColorMatrix type="matrix" values="0 0 0 0 0 0 0 0 0 0 0 0 0 0 0 0 0 0 1 0"/>
<feBlend mode="normal" in2="BackgroundImageFix" result="effect1_dropShadow_63_2497"/>
<feBlend mode="normal" in="SourceGraphic" in2="effect1_dropShadow_63_2497" result="shape"/>
</filter>
</defs>
</svg>
